<mxfile host="app.diagrams.net" agent="Mozilla/5.0 (Windows NT 10.0; Win64; x64) AppleWebKit/537.36 (KHTML, like Gecko) Chrome/135.0.0.0 Safari/537.36" version="26.2.13">
  <diagram name="Сторінка-1" id="KG_fTRsdJCZFSRQ4a5vA">
    <mxGraphModel dx="2088" dy="1070" grid="1" gridSize="10" guides="1" tooltips="1" connect="1" arrows="1" fold="1" page="1" pageScale="1" pageWidth="1169" pageHeight="827" math="0" shadow="0">
      <root>
        <mxCell id="0" />
        <mxCell id="1" parent="0" />
        <mxCell id="KQMHyQMah1fskt_qp92d-1" value="&lt;font style=&quot;color: light-dark(rgb(0, 0, 0), rgb(255, 255, 255));&quot;&gt;Диспетчер&lt;/font&gt;" style="shape=umlActor;verticalLabelPosition=bottom;verticalAlign=top;html=1;outlineConnect=0;fillColor=#a20025;fontColor=#ffffff;strokeColor=#6F0000;" vertex="1" parent="1">
          <mxGeometry x="490" y="130" width="30" height="60" as="geometry" />
        </mxCell>
        <mxCell id="KQMHyQMah1fskt_qp92d-2" value="Водії" style="shape=umlActor;verticalLabelPosition=bottom;verticalAlign=top;html=1;outlineConnect=0;" vertex="1" parent="1">
          <mxGeometry x="260" y="180" width="30" height="60" as="geometry" />
        </mxCell>
        <mxCell id="KQMHyQMah1fskt_qp92d-3" value="Синоптики" style="shape=umlActor;verticalLabelPosition=bottom;verticalAlign=top;html=1;outlineConnect=0;" vertex="1" parent="1">
          <mxGeometry x="960" y="520" width="30" height="60" as="geometry" />
        </mxCell>
        <mxCell id="KQMHyQMah1fskt_qp92d-4" value="Авторизація в системі" style="ellipse;whiteSpace=wrap;html=1;" vertex="1" parent="1">
          <mxGeometry x="635.76" y="155" width="146" height="40" as="geometry" />
        </mxCell>
        <mxCell id="KQMHyQMah1fskt_qp92d-5" value="Помилка авторизації" style="ellipse;whiteSpace=wrap;html=1;" vertex="1" parent="1">
          <mxGeometry x="855.76" y="150" width="140" height="50" as="geometry" />
        </mxCell>
        <mxCell id="KQMHyQMah1fskt_qp92d-6" value="e&lt;span style=&quot;background-color: light-dark(#ffffff, var(--ge-dark-color, #121212)); color: light-dark(rgb(0, 0, 0), rgb(255, 255, 255));&quot;&gt;xtend&lt;/span&gt;" style="html=1;verticalAlign=bottom;endArrow=block;curved=0;rounded=0;exitX=1;exitY=0.5;exitDx=0;exitDy=0;entryX=0;entryY=0.5;entryDx=0;entryDy=0;" edge="1" parent="1" source="KQMHyQMah1fskt_qp92d-4" target="KQMHyQMah1fskt_qp92d-5">
          <mxGeometry width="80" relative="1" as="geometry">
            <mxPoint x="540.76" y="435" as="sourcePoint" />
            <mxPoint x="542.76" y="485" as="targetPoint" />
          </mxGeometry>
        </mxCell>
        <mxCell id="KQMHyQMah1fskt_qp92d-7" value="&#xa;Двофакторна автентифікація&#xa;&#xa;" style="ellipse;whiteSpace=wrap;html=1;" vertex="1" parent="1">
          <mxGeometry x="781.76" y="230" width="120" height="80" as="geometry" />
        </mxCell>
        <mxCell id="KQMHyQMah1fskt_qp92d-8" value="" style="endArrow=classic;html=1;rounded=0;exitX=1;exitY=1;exitDx=0;exitDy=0;entryX=0;entryY=0;entryDx=0;entryDy=0;" edge="1" parent="1" source="KQMHyQMah1fskt_qp92d-4" target="KQMHyQMah1fskt_qp92d-7">
          <mxGeometry relative="1" as="geometry">
            <mxPoint x="718.76" y="205" as="sourcePoint" />
            <mxPoint x="590.76" y="343" as="targetPoint" />
          </mxGeometry>
        </mxCell>
        <mxCell id="KQMHyQMah1fskt_qp92d-9" value="include" style="edgeLabel;resizable=0;html=1;;align=center;verticalAlign=middle;" connectable="0" vertex="1" parent="KQMHyQMah1fskt_qp92d-8">
          <mxGeometry relative="1" as="geometry" />
        </mxCell>
        <mxCell id="KQMHyQMah1fskt_qp92d-10" value="" style="endArrow=classic;html=1;rounded=0;entryX=0;entryY=0.5;entryDx=0;entryDy=0;" edge="1" parent="1" source="KQMHyQMah1fskt_qp92d-1" target="KQMHyQMah1fskt_qp92d-4">
          <mxGeometry relative="1" as="geometry">
            <mxPoint x="600" y="200" as="sourcePoint" />
            <mxPoint x="809" y="252" as="targetPoint" />
          </mxGeometry>
        </mxCell>
        <mxCell id="KQMHyQMah1fskt_qp92d-11" value="include" style="edgeLabel;resizable=0;html=1;;align=center;verticalAlign=middle;" connectable="0" vertex="1" parent="KQMHyQMah1fskt_qp92d-10">
          <mxGeometry relative="1" as="geometry" />
        </mxCell>
        <mxCell id="KQMHyQMah1fskt_qp92d-12" value="&#xa;Активувати модуль прогнозу погоди&#xa;&#xa;" style="ellipse;whiteSpace=wrap;html=1;" vertex="1" parent="1">
          <mxGeometry x="630" y="260" width="120" height="80" as="geometry" />
        </mxCell>
        <mxCell id="KQMHyQMah1fskt_qp92d-13" value="&#xa;Аналіз впливу погоди на маршрути&#xa;&#xa;" style="ellipse;whiteSpace=wrap;html=1;" vertex="1" parent="1">
          <mxGeometry x="480" y="290" width="120" height="80" as="geometry" />
        </mxCell>
        <mxCell id="KQMHyQMah1fskt_qp92d-14" value="" style="endArrow=classic;html=1;rounded=0;entryX=0.5;entryY=0;entryDx=0;entryDy=0;" edge="1" parent="1" source="KQMHyQMah1fskt_qp92d-1" target="KQMHyQMah1fskt_qp92d-13">
          <mxGeometry width="50" height="50" relative="1" as="geometry">
            <mxPoint x="460" y="360" as="sourcePoint" />
            <mxPoint x="510" y="310" as="targetPoint" />
          </mxGeometry>
        </mxCell>
        <mxCell id="KQMHyQMah1fskt_qp92d-15" value="" style="endArrow=classic;html=1;rounded=0;entryX=0;entryY=0;entryDx=0;entryDy=0;" edge="1" parent="1" source="KQMHyQMah1fskt_qp92d-1" target="KQMHyQMah1fskt_qp92d-12">
          <mxGeometry width="50" height="50" relative="1" as="geometry">
            <mxPoint x="460" y="360" as="sourcePoint" />
            <mxPoint x="510" y="310" as="targetPoint" />
          </mxGeometry>
        </mxCell>
        <mxCell id="KQMHyQMah1fskt_qp92d-16" value="&#xa;Отримати метеорологічні дані&#xa;&#xa;" style="ellipse;whiteSpace=wrap;html=1;" vertex="1" parent="1">
          <mxGeometry x="610" y="424" width="120" height="80" as="geometry" />
        </mxCell>
        <mxCell id="KQMHyQMah1fskt_qp92d-17" value="" style="endArrow=classic;html=1;rounded=0;exitX=0.5;exitY=1;exitDx=0;exitDy=0;entryX=0;entryY=0;entryDx=0;entryDy=0;" edge="1" parent="1" source="KQMHyQMah1fskt_qp92d-13" target="KQMHyQMah1fskt_qp92d-16">
          <mxGeometry relative="1" as="geometry">
            <mxPoint x="770" y="199" as="sourcePoint" />
            <mxPoint x="809" y="252" as="targetPoint" />
          </mxGeometry>
        </mxCell>
        <mxCell id="KQMHyQMah1fskt_qp92d-18" value="include" style="edgeLabel;resizable=0;html=1;;align=center;verticalAlign=middle;" connectable="0" vertex="1" parent="KQMHyQMah1fskt_qp92d-17">
          <mxGeometry relative="1" as="geometry" />
        </mxCell>
        <mxCell id="KQMHyQMah1fskt_qp92d-19" value="" style="endArrow=classic;html=1;rounded=0;exitX=0.413;exitY=0.978;exitDx=0;exitDy=0;entryX=0.5;entryY=0;entryDx=0;entryDy=0;exitPerimeter=0;" edge="1" parent="1" source="KQMHyQMah1fskt_qp92d-12" target="KQMHyQMah1fskt_qp92d-16">
          <mxGeometry relative="1" as="geometry">
            <mxPoint x="780" y="209" as="sourcePoint" />
            <mxPoint x="819" y="262" as="targetPoint" />
          </mxGeometry>
        </mxCell>
        <mxCell id="KQMHyQMah1fskt_qp92d-20" value="include" style="edgeLabel;resizable=0;html=1;;align=center;verticalAlign=middle;" connectable="0" vertex="1" parent="KQMHyQMah1fskt_qp92d-19">
          <mxGeometry relative="1" as="geometry" />
        </mxCell>
        <mxCell id="KQMHyQMah1fskt_qp92d-21" value="&#xa;Відправити сповіщення про погодні ризики&#xa;&#xa;" style="ellipse;whiteSpace=wrap;html=1;" vertex="1" parent="1">
          <mxGeometry x="310" y="340" width="120" height="80" as="geometry" />
        </mxCell>
        <mxCell id="KQMHyQMah1fskt_qp92d-22" value="&#xa;Коригувати маршрути&#xa;&#xa;" style="ellipse;whiteSpace=wrap;html=1;" vertex="1" parent="1">
          <mxGeometry x="130" y="340" width="120" height="80" as="geometry" />
        </mxCell>
        <mxCell id="KQMHyQMah1fskt_qp92d-23" value="e&lt;span style=&quot;background-color: light-dark(#ffffff, var(--ge-dark-color, #121212)); color: light-dark(rgb(0, 0, 0), rgb(255, 255, 255));&quot;&gt;xtend&lt;/span&gt;" style="html=1;verticalAlign=bottom;endArrow=block;curved=0;rounded=0;exitX=0;exitY=0.5;exitDx=0;exitDy=0;" edge="1" parent="1" source="KQMHyQMah1fskt_qp92d-13" target="KQMHyQMah1fskt_qp92d-21">
          <mxGeometry width="80" relative="1" as="geometry">
            <mxPoint x="400" y="410" as="sourcePoint" />
            <mxPoint x="474" y="410" as="targetPoint" />
          </mxGeometry>
        </mxCell>
        <mxCell id="KQMHyQMah1fskt_qp92d-24" value="e&lt;span style=&quot;background-color: light-dark(#ffffff, var(--ge-dark-color, #121212)); color: light-dark(rgb(0, 0, 0), rgb(255, 255, 255));&quot;&gt;xtend&lt;/span&gt;" style="html=1;verticalAlign=bottom;endArrow=block;curved=0;rounded=0;exitX=0;exitY=0.5;exitDx=0;exitDy=0;" edge="1" parent="1" source="KQMHyQMah1fskt_qp92d-21" target="KQMHyQMah1fskt_qp92d-22">
          <mxGeometry width="80" relative="1" as="geometry">
            <mxPoint x="170" y="260" as="sourcePoint" />
            <mxPoint x="244" y="260" as="targetPoint" />
          </mxGeometry>
        </mxCell>
        <mxCell id="KQMHyQMah1fskt_qp92d-25" value="" style="endArrow=classic;html=1;rounded=0;" edge="1" parent="1" source="KQMHyQMah1fskt_qp92d-1" target="KQMHyQMah1fskt_qp92d-2">
          <mxGeometry width="50" height="50" relative="1" as="geometry">
            <mxPoint x="523" y="200" as="sourcePoint" />
            <mxPoint x="550" y="300" as="targetPoint" />
          </mxGeometry>
        </mxCell>
        <mxCell id="KQMHyQMah1fskt_qp92d-26" value="" style="endArrow=classic;html=1;rounded=0;entryX=1;entryY=1;entryDx=0;entryDy=0;" edge="1" parent="1" source="KQMHyQMah1fskt_qp92d-3" target="KQMHyQMah1fskt_qp92d-16">
          <mxGeometry width="50" height="50" relative="1" as="geometry">
            <mxPoint x="530" y="182" as="sourcePoint" />
            <mxPoint x="658" y="282" as="targetPoint" />
          </mxGeometry>
        </mxCell>
        <mxCell id="KQMHyQMah1fskt_qp92d-27" value="Помилкові дані" style="ellipse;whiteSpace=wrap;html=1;" vertex="1" parent="1">
          <mxGeometry x="444" y="480" width="120" height="80" as="geometry" />
        </mxCell>
        <mxCell id="KQMHyQMah1fskt_qp92d-28" value="e&lt;span style=&quot;background-color: light-dark(#ffffff, var(--ge-dark-color, #121212)); color: light-dark(rgb(0, 0, 0), rgb(255, 255, 255));&quot;&gt;xtend&lt;/span&gt;" style="html=1;verticalAlign=bottom;endArrow=block;curved=0;rounded=0;exitX=0;exitY=0.5;exitDx=0;exitDy=0;entryX=1;entryY=0.5;entryDx=0;entryDy=0;" edge="1" parent="1" source="KQMHyQMah1fskt_qp92d-16" target="KQMHyQMah1fskt_qp92d-27">
          <mxGeometry width="80" relative="1" as="geometry">
            <mxPoint x="490" y="340" as="sourcePoint" />
            <mxPoint x="430" y="367" as="targetPoint" />
          </mxGeometry>
        </mxCell>
        <mxCell id="KQMHyQMah1fskt_qp92d-29" value="&lt;font style=&quot;color: light-dark(rgb(0, 0, 0), rgb(255, 255, 255));&quot;&gt;Диспетчер&lt;/font&gt;" style="shape=umlActor;verticalLabelPosition=bottom;verticalAlign=top;html=1;outlineConnect=0;fillColor=#a20025;fontColor=#ffffff;strokeColor=#6F0000;" vertex="1" parent="1">
          <mxGeometry x="500" y="140" width="30" height="60" as="geometry" />
        </mxCell>
        <mxCell id="KQMHyQMah1fskt_qp92d-30" value="Водії" style="shape=umlActor;verticalLabelPosition=bottom;verticalAlign=top;html=1;outlineConnect=0;" vertex="1" parent="1">
          <mxGeometry x="270" y="190" width="30" height="60" as="geometry" />
        </mxCell>
        <mxCell id="KQMHyQMah1fskt_qp92d-31" value="Синоптики" style="shape=umlActor;verticalLabelPosition=bottom;verticalAlign=top;html=1;outlineConnect=0;" vertex="1" parent="1">
          <mxGeometry x="970" y="530" width="30" height="60" as="geometry" />
        </mxCell>
        <mxCell id="KQMHyQMah1fskt_qp92d-32" value="Авторизація в системі" style="ellipse;whiteSpace=wrap;html=1;" vertex="1" parent="1">
          <mxGeometry x="645.76" y="165" width="146" height="40" as="geometry" />
        </mxCell>
        <mxCell id="KQMHyQMah1fskt_qp92d-33" value="Помилка авторизації" style="ellipse;whiteSpace=wrap;html=1;" vertex="1" parent="1">
          <mxGeometry x="865.76" y="160" width="140" height="50" as="geometry" />
        </mxCell>
        <mxCell id="KQMHyQMah1fskt_qp92d-34" value="e&lt;span style=&quot;background-color: light-dark(#ffffff, var(--ge-dark-color, #121212)); color: light-dark(rgb(0, 0, 0), rgb(255, 255, 255));&quot;&gt;xtend&lt;/span&gt;" style="html=1;verticalAlign=bottom;endArrow=block;curved=0;rounded=0;exitX=1;exitY=0.5;exitDx=0;exitDy=0;entryX=0;entryY=0.5;entryDx=0;entryDy=0;" edge="1" source="KQMHyQMah1fskt_qp92d-32" target="KQMHyQMah1fskt_qp92d-33" parent="1">
          <mxGeometry width="80" relative="1" as="geometry">
            <mxPoint x="550.76" y="445" as="sourcePoint" />
            <mxPoint x="552.76" y="495" as="targetPoint" />
          </mxGeometry>
        </mxCell>
        <mxCell id="KQMHyQMah1fskt_qp92d-35" value="&#xa;Двофакторна автентифікація&#xa;&#xa;" style="ellipse;whiteSpace=wrap;html=1;" vertex="1" parent="1">
          <mxGeometry x="791.76" y="240" width="120" height="80" as="geometry" />
        </mxCell>
        <mxCell id="KQMHyQMah1fskt_qp92d-36" value="" style="endArrow=classic;html=1;rounded=0;exitX=1;exitY=1;exitDx=0;exitDy=0;entryX=0;entryY=0;entryDx=0;entryDy=0;" edge="1" source="KQMHyQMah1fskt_qp92d-32" target="KQMHyQMah1fskt_qp92d-35" parent="1">
          <mxGeometry relative="1" as="geometry">
            <mxPoint x="728.76" y="215" as="sourcePoint" />
            <mxPoint x="600.76" y="353" as="targetPoint" />
          </mxGeometry>
        </mxCell>
        <mxCell id="KQMHyQMah1fskt_qp92d-37" value="include" style="edgeLabel;resizable=0;html=1;;align=center;verticalAlign=middle;" connectable="0" vertex="1" parent="KQMHyQMah1fskt_qp92d-36">
          <mxGeometry relative="1" as="geometry" />
        </mxCell>
        <mxCell id="KQMHyQMah1fskt_qp92d-38" value="" style="endArrow=classic;html=1;rounded=0;entryX=0;entryY=0.5;entryDx=0;entryDy=0;" edge="1" source="KQMHyQMah1fskt_qp92d-29" target="KQMHyQMah1fskt_qp92d-32" parent="1">
          <mxGeometry relative="1" as="geometry">
            <mxPoint x="610" y="210" as="sourcePoint" />
            <mxPoint x="819" y="262" as="targetPoint" />
          </mxGeometry>
        </mxCell>
        <mxCell id="KQMHyQMah1fskt_qp92d-39" value="include" style="edgeLabel;resizable=0;html=1;;align=center;verticalAlign=middle;" connectable="0" vertex="1" parent="KQMHyQMah1fskt_qp92d-38">
          <mxGeometry relative="1" as="geometry" />
        </mxCell>
        <mxCell id="KQMHyQMah1fskt_qp92d-40" value="&#xa;Активувати модуль прогнозу погоди&#xa;&#xa;" style="ellipse;whiteSpace=wrap;html=1;" vertex="1" parent="1">
          <mxGeometry x="640" y="270" width="120" height="80" as="geometry" />
        </mxCell>
        <mxCell id="KQMHyQMah1fskt_qp92d-41" value="&#xa;Аналіз впливу погоди на маршрути&#xa;&#xa;" style="ellipse;whiteSpace=wrap;html=1;" vertex="1" parent="1">
          <mxGeometry x="490" y="300" width="120" height="80" as="geometry" />
        </mxCell>
        <mxCell id="KQMHyQMah1fskt_qp92d-42" value="" style="endArrow=classic;html=1;rounded=0;entryX=0.5;entryY=0;entryDx=0;entryDy=0;" edge="1" source="KQMHyQMah1fskt_qp92d-29" target="KQMHyQMah1fskt_qp92d-41" parent="1">
          <mxGeometry width="50" height="50" relative="1" as="geometry">
            <mxPoint x="470" y="370" as="sourcePoint" />
            <mxPoint x="520" y="320" as="targetPoint" />
          </mxGeometry>
        </mxCell>
        <mxCell id="KQMHyQMah1fskt_qp92d-43" value="" style="endArrow=classic;html=1;rounded=0;entryX=0;entryY=0;entryDx=0;entryDy=0;" edge="1" source="KQMHyQMah1fskt_qp92d-29" target="KQMHyQMah1fskt_qp92d-40" parent="1">
          <mxGeometry width="50" height="50" relative="1" as="geometry">
            <mxPoint x="470" y="370" as="sourcePoint" />
            <mxPoint x="520" y="320" as="targetPoint" />
          </mxGeometry>
        </mxCell>
        <mxCell id="KQMHyQMah1fskt_qp92d-44" value="&#xa;Отримати метеорологічні дані&#xa;&#xa;" style="ellipse;whiteSpace=wrap;html=1;" vertex="1" parent="1">
          <mxGeometry x="620" y="434" width="120" height="80" as="geometry" />
        </mxCell>
        <mxCell id="KQMHyQMah1fskt_qp92d-45" value="" style="endArrow=classic;html=1;rounded=0;exitX=0.5;exitY=1;exitDx=0;exitDy=0;entryX=0;entryY=0;entryDx=0;entryDy=0;" edge="1" source="KQMHyQMah1fskt_qp92d-41" target="KQMHyQMah1fskt_qp92d-44" parent="1">
          <mxGeometry relative="1" as="geometry">
            <mxPoint x="780" y="209" as="sourcePoint" />
            <mxPoint x="819" y="262" as="targetPoint" />
          </mxGeometry>
        </mxCell>
        <mxCell id="KQMHyQMah1fskt_qp92d-46" value="include" style="edgeLabel;resizable=0;html=1;;align=center;verticalAlign=middle;" connectable="0" vertex="1" parent="KQMHyQMah1fskt_qp92d-45">
          <mxGeometry relative="1" as="geometry" />
        </mxCell>
        <mxCell id="KQMHyQMah1fskt_qp92d-47" value="" style="endArrow=classic;html=1;rounded=0;exitX=0.413;exitY=0.978;exitDx=0;exitDy=0;entryX=0.5;entryY=0;entryDx=0;entryDy=0;exitPerimeter=0;" edge="1" source="KQMHyQMah1fskt_qp92d-40" target="KQMHyQMah1fskt_qp92d-44" parent="1">
          <mxGeometry relative="1" as="geometry">
            <mxPoint x="790" y="219" as="sourcePoint" />
            <mxPoint x="829" y="272" as="targetPoint" />
          </mxGeometry>
        </mxCell>
        <mxCell id="KQMHyQMah1fskt_qp92d-48" value="include" style="edgeLabel;resizable=0;html=1;;align=center;verticalAlign=middle;" connectable="0" vertex="1" parent="KQMHyQMah1fskt_qp92d-47">
          <mxGeometry relative="1" as="geometry" />
        </mxCell>
        <mxCell id="KQMHyQMah1fskt_qp92d-49" value="&#xa;Відправити сповіщення про погодні ризики&#xa;&#xa;" style="ellipse;whiteSpace=wrap;html=1;" vertex="1" parent="1">
          <mxGeometry x="320" y="350" width="120" height="80" as="geometry" />
        </mxCell>
        <mxCell id="KQMHyQMah1fskt_qp92d-50" value="&#xa;Коригувати маршрути&#xa;&#xa;" style="ellipse;whiteSpace=wrap;html=1;" vertex="1" parent="1">
          <mxGeometry x="140" y="350" width="120" height="80" as="geometry" />
        </mxCell>
        <mxCell id="KQMHyQMah1fskt_qp92d-51" value="e&lt;span style=&quot;background-color: light-dark(#ffffff, var(--ge-dark-color, #121212)); color: light-dark(rgb(0, 0, 0), rgb(255, 255, 255));&quot;&gt;xtend&lt;/span&gt;" style="html=1;verticalAlign=bottom;endArrow=block;curved=0;rounded=0;exitX=0;exitY=0.5;exitDx=0;exitDy=0;" edge="1" source="KQMHyQMah1fskt_qp92d-41" target="KQMHyQMah1fskt_qp92d-49" parent="1">
          <mxGeometry width="80" relative="1" as="geometry">
            <mxPoint x="410" y="420" as="sourcePoint" />
            <mxPoint x="484" y="420" as="targetPoint" />
          </mxGeometry>
        </mxCell>
        <mxCell id="KQMHyQMah1fskt_qp92d-52" value="e&lt;span style=&quot;background-color: light-dark(#ffffff, var(--ge-dark-color, #121212)); color: light-dark(rgb(0, 0, 0), rgb(255, 255, 255));&quot;&gt;xtend&lt;/span&gt;" style="html=1;verticalAlign=bottom;endArrow=block;curved=0;rounded=0;exitX=0;exitY=0.5;exitDx=0;exitDy=0;" edge="1" source="KQMHyQMah1fskt_qp92d-49" target="KQMHyQMah1fskt_qp92d-50" parent="1">
          <mxGeometry width="80" relative="1" as="geometry">
            <mxPoint x="180" y="270" as="sourcePoint" />
            <mxPoint x="254" y="270" as="targetPoint" />
          </mxGeometry>
        </mxCell>
        <mxCell id="KQMHyQMah1fskt_qp92d-53" value="" style="endArrow=classic;html=1;rounded=0;" edge="1" source="KQMHyQMah1fskt_qp92d-29" target="KQMHyQMah1fskt_qp92d-30" parent="1">
          <mxGeometry width="50" height="50" relative="1" as="geometry">
            <mxPoint x="533" y="210" as="sourcePoint" />
            <mxPoint x="560" y="310" as="targetPoint" />
          </mxGeometry>
        </mxCell>
        <mxCell id="KQMHyQMah1fskt_qp92d-54" value="" style="endArrow=classic;html=1;rounded=0;entryX=1;entryY=1;entryDx=0;entryDy=0;" edge="1" source="KQMHyQMah1fskt_qp92d-31" target="KQMHyQMah1fskt_qp92d-44" parent="1">
          <mxGeometry width="50" height="50" relative="1" as="geometry">
            <mxPoint x="540" y="192" as="sourcePoint" />
            <mxPoint x="668" y="292" as="targetPoint" />
          </mxGeometry>
        </mxCell>
        <mxCell id="KQMHyQMah1fskt_qp92d-55" value="Помилкові дані" style="ellipse;whiteSpace=wrap;html=1;" vertex="1" parent="1">
          <mxGeometry x="454" y="490" width="120" height="80" as="geometry" />
        </mxCell>
        <mxCell id="KQMHyQMah1fskt_qp92d-56" value="e&lt;span style=&quot;background-color: light-dark(#ffffff, var(--ge-dark-color, #121212)); color: light-dark(rgb(0, 0, 0), rgb(255, 255, 255));&quot;&gt;xtend&lt;/span&gt;" style="html=1;verticalAlign=bottom;endArrow=block;curved=0;rounded=0;exitX=0;exitY=0.5;exitDx=0;exitDy=0;entryX=1;entryY=0.5;entryDx=0;entryDy=0;" edge="1" source="KQMHyQMah1fskt_qp92d-44" target="KQMHyQMah1fskt_qp92d-55" parent="1">
          <mxGeometry width="80" relative="1" as="geometry">
            <mxPoint x="500" y="350" as="sourcePoint" />
            <mxPoint x="440" y="377" as="targetPoint" />
          </mxGeometry>
        </mxCell>
      </root>
    </mxGraphModel>
  </diagram>
</mxfile>
